# xmcd
#
# Track frame offsets:
#	150
#	11910
#	23174
#	34908
#	46217
#	54693
#	64290
#	75934
#	90188
#	103037
#	114103
#	126245
#	135887
#	148142
#	160164
#	170421
#	181240
#	191475
#	203742
#	214975
#
# Disc length: 3022 seconds
#
# Revision: 1
# Processed by: cddbd v1.5.2PL0 Copyright (c) Steve Scherf et al.
# Submitted via: audiograbber 1.83.01
#
DISCID=0b0bcc14
DTITLE=George Jones - Super Pack
DYEAR=1972
DGENRE=Country
TTITLE0=She Thinks I Still Care
TTITLE1=Running Bear
TTITLE2=Least Of All You
TTITLE3=My Tears Are Overdue
TTITLE4=A Little Bitty Tear Let Me Down
TTITLE5=The Race Is On
TTITLE6=The Warm Red Wine
TTITLE7=Open Pit Mine
TTITLE8=Season's Of My Heart
TTITLE9=Not What I Had In Mind
TTITLE10=A Girl I Used To Know
TTITLE11=Rolling In My Sweet Baby's Arms
TTITLE12=Sometimes You Just Can't Win
TTITLE13=Faded Love
TTITLE14=Your Heart Turned Left (And I Was On The Right)
TTITLE15=Ain't It Funny What A Fool Will Do
TTITLE16=Ragged But Right
TTITLE17=You Comb Her Hair
TTITLE18=Big Fool Of The Year
TTITLE19=Where Does A Little Tear Come From
EXTD=
EXTT0=
EXTT1=
EXTT2=
EXTT3=
EXTT4=
EXTT5=
EXTT6=
EXTT7=
EXTT8=
EXTT9=
EXTT10=
EXTT11=
EXTT12=
EXTT13=
EXTT14=
EXTT15=
EXTT16=
EXTT17=
EXTT18=
EXTT19=
PLAYORDER=
